<svg width="44" height="45" viewBox="0 0 44 45" fill="none" xmlns="http://www.w3.org/2000/svg">
    <path d="M2.68695 44.9873L10.0561 43.9547V26.7354L0.875 28.0116V43.3145C0.875 44.3347 1.72423 45.1195 2.68304 44.9873H2.68695Z"
          fill="#0D85F4"/>
    <path d="M19.7694 25.373V42.5965L13.1165 43.53V26.3024L19.7694 25.373Z" fill="#0D85F4"/>
    <path d="M42.5696 39.4118L22.3798 42.175V24.9473L43.9628 21.9941V37.739C43.9628 38.5857 43.3679 39.3044 42.5696 39.4118Z"
          fill="#0D85F4"/>
    <path d="M0.875 23.5923L22.3836 20.6391V2.8291L2.26821 5.5923C1.46985 5.69968 0.875 6.41836 0.875 7.26508V23.5923Z"
          fill="#0D85F4"/>
    <path d="M25.0645 20.2098L31.7252 19.2846V1.47461L25.0645 2.3998V20.2098Z" fill="#0D85F4"/>
    <path d="M43.9628 17.5746L34.7817 18.855V1.04496L42.1548 0.0165078C43.1136 -0.115663 43.9628 0.669101 43.9628 1.68929V17.5746Z"
          fill="#0D85F4"/>
</svg>
