<svg xmlns="http://www.w3.org/2000/svg" width="166" height="45" viewBox="0 0 166 45" fill="none">
    <g clip-path="url(#clip0_801_2706)">
        <path d="M81.2937 28.4291L59.6403 22.3038L59.4094 22.217C56.1494 20.9986 53.9696 17.7398 53.9696 14.0927C53.9696 9.33452 57.6287 5.47266 62.1371 5.47266H86.7179V11.6599H62.1371C60.8652 11.6599 59.832 12.7503 59.832 14.0927C59.832 15.1129 60.4386 16.0298 61.3466 16.3809L61.3779 16.3933L83.0313 22.5185L83.2622 22.6053C86.5222 23.8237 88.702 27.0826 88.702 30.7297C88.702 35.4878 85.0429 39.3497 80.5345 39.3497H55.9538V33.1624H80.5345C81.8103 33.1624 82.8435 32.072 82.8435 30.7297C82.8435 29.7095 82.2369 28.7925 81.3289 28.4415L81.2976 28.4291H81.2937Z" fill="#0D85F4"/>
        <path d="M92.4003 18.1484C92.4003 11.1806 97.8048 5.47656 104.407 5.47656H125.145V11.6638H104.407C101.026 11.6638 98.2588 14.584 98.2588 18.1526V26.6734C98.2588 30.2421 101.026 33.1622 104.407 33.1622H125.145V39.3494H104.407C97.8048 39.3494 92.4003 33.6454 92.4003 26.6776V18.1567V18.1484Z" fill="#0D85F4"/>
        <path d="M130.396 11.6599V5.47266H165.125V11.6599H150.692V39.3414H144.83V11.6599H130.396Z" fill="#0D85F4"/>
        <path d="M2.68695 44.9873L10.0561 43.9547V26.7354L0.875 28.0116V43.3145C0.875 44.3347 1.72423 45.1195 2.68304 44.9873H2.68695Z" fill="#0D85F4"/>
        <path d="M19.7694 25.373V42.5965L13.1165 43.53V26.3024L19.7694 25.373Z" fill="#0D85F4"/>
        <path d="M42.5696 39.4118L22.3798 42.175V24.9473L43.9628 21.9941V37.739C43.9628 38.5857 43.3679 39.3044 42.5696 39.4118Z" fill="#0D85F4"/>
        <path d="M0.875 23.5923L22.3836 20.6391V2.8291L2.26821 5.5923C1.46985 5.69968 0.875 6.41836 0.875 7.26508V23.5923Z" fill="#0D85F4"/>
        <path d="M25.0645 20.2098L31.7252 19.2846V1.47461L25.0645 2.3998V20.2098Z" fill="#0D85F4"/>
        <path d="M43.9628 17.5746L34.7817 18.855V1.04496L42.1548 0.0165078C43.1136 -0.115663 43.9628 0.669101 43.9628 1.68929V17.5746Z" fill="#0D85F4"/>
    </g>
    <defs>
        <clipPath id="clip0_801_2706">
            <rect width="164.25" height="45" fill="white" transform="translate(0.875)"/>
        </clipPath>
    </defs>
</svg>